# xmcd
#
# Track frame offsets:
#	150
#	18087
#	47942
#	86176
#	122662
#
# Disc length: 2134 seconds
#
# Revision: 2
# Processed by: cddbd v1.5.2PL0 Copyright (c) Steve Scherf et al.
# Submitted via: EasyCDDAExtractor 12.0.2.1
#
DISCID=39085405
DTITLE=Ronski Speed feat Ana Criado - The Deep Devine
DYEAR=2009
DGENRE=Trance
TTITLE0=The Deep Devine (Radio Edit)
TTITLE1=The Deep Devine (Steve Brian Remix)
TTITLE2=The Deep Devine (Gareth Emery Remix)
TTITLE3=The Deep Devine (Club Dub)
TTITLE4=The Deep Devine (Club Mix)
EXTD=
EXTT0=
EXTT1=
EXTT2=
EXTT3=
EXTT4=
PLAYORDER=
